inDegrees=yes
name=ik_S51_A09_T02
DataType=double
version=3
OpenSimVersion=4.3-2021-08-27-4bc7ad9
endheader
time	pelvis_tilt	pelvis_list	pelvis_rotation	pelvis_tx	pelvis_ty	pelvis_tz	hip_flexion_r	hip_adduction_r	hip_rotation_r	knee_angle_r	knee_angle_r_beta	ankle_angle_r	subtalar_angle_r	mtp_angle_r	hip_flexion_l	hip_adduction_l	hip_rotation_l	knee_angle_l	knee_angle_l_beta	ankle_angle_l	subtalar_angle_l	mtp_angle_l	lumbar_extension	lumbar_bending	lumbar_rotation	arm_flex_r	arm_add_r	arm_rot_r	elbow_flex_r	pro_sup_r	wrist_flex_r	wrist_dev_r	arm_flex_l	arm_add_l	arm_rot_l	elbow_flex_l	pro_sup_l	wrist_flex_l	wrist_dev_l
0	0	0	0	0	0.9399999999999999	0	0	0	0	0	0	0	0	0	0	0	0	0	0	0	0	0	0	0	0	0	0	0	0	89.99999999963507	0	0	0	0	0	0	89.99999999869995	0	0
0.02	-4.919021988609015	0.2769285895751903	23.60303627770372	0	0.9399999999999999	0	3.356841367246955	-1.57829188272424	-1.131262210451664	5.202530839000889	0.09080129257710852	0	0	0	3.356841367246955	-1.57829188272424	-1.131262210451664	5.202530839000889	0.09080129257710852	0	0	0	-2.698026143855957	-2.301103914952244	4.097996228425977	4.297219240131526	-12.99428041973164	-11.52310747190581	62.02391351686496	118.0870781241707	0	0	22.00380653685473	-4.19319891280283	-17.57154257402462	36.76473123734333	130.5556023734355	0	0
0.04	-4.872531385025761	0.2983380495219398	24.55815283161315	0	0.9399999999999999	0	27.31975909954846	-16.9213412739768	-9.024879727941959	50.88783123262231	0.8881602042084638	0	0	0	27.31975909954846	-16.9213412739768	-9.024879727941959	50.88783123262231	0.8881602042084638	0	0	0	-2.780368467781657	-2.25694394147361	3.199068590734632	4.251565970458875	-12.97903094159566	-11.55042928447615	62.08302408638566	118.057291278999	0	0	21.95807117902571	-4.196224245101243	-17.53315302453604	36.91011866166994	130.373124825038	0	0
0.06	-4.861828580783766	0.2840832810002674	24.59545749287312	0	0.9399999999999999	0	27.38077980955066	-16.84427802283371	-9.032035308194937	50.89704565263543	0.8883210261763544	0	0	0	27.38077980955066	-16.84427802283371	-9.032035308194937	50.89704565263543	0.8883210261763544	0	0	0	-2.779947229592902	-2.26479444885334	3.206856326699875	4.206729519271976	-12.96956598127035	-11.5888660641768	62.13116256797151	118.0131223260223	0	0	21.96006952871148	-4.210811540930725	-17.52118065311012	36.95855265316928	130.3073717584192	0	0
0.08	-4.859368444733817	0.2725481367778139	24.63595009389712	0	0.9399999999999999	0	27.4187736137428	-16.79756983919316	-9.036488508716852	50.90286334020693	0.8884225639793295	0	0	0	27.4187736137428	-16.79756983919316	-9.036488508716852	50.90286334020693	0.8884225639793295	0	0	0	-2.784606591925729	-2.270517507033736	3.216227787599168	4.176172816314549	-12.9805706667083	-11.67009717583262	62.13959067262744	118.0390629196143	0	0	21.98449304494753	-4.227699401721583	-17.5315387986124	36.96965158711169	130.2874923811928	0	0
0.1	-4.857613462196381	0.2574551519940289	24.66917900266645	0	0.9399999999999999	0	27.45501635458804	-16.75603799345497	-9.040513384251026	50.9084714836295	0.8885204445469774	0	0	0	27.45501635458804	-16.75603799345497	-9.040513384251026	50.9084714836295	0.8885204445469774	0	0	0	-2.791414891783315	-2.279258877720825	3.224874462545802	4.151505763785546	-12.95710204779196	-11.71189164429294	62.1613590435649	118.0343884281808	0	0	22.0036019252212	-4.230292707471969	-17.54577099043675	37.00321383777246	130.2544103286852	0	0
0.12	-4.851883886602398	0.2512207790042438	24.70793130695641	0	0.9399999999999999	0	27.47431417853387	-16.7281674709473	-9.042956277294378	50.91130360568095	0.8885698744015934	0	0	0	27.47431417853387	-16.7281674709473	-9.042956277294378	50.91130360568095	0.8885698744015934	0	0	0	-2.789866452029987	-2.28499333108588	3.239551807319838	4.116123542762981	-12.94998414752259	-11.72768606990164	62.16724191524381	118.0680970125843	0	0	22.01461131051816	-4.241719575839916	-17.54270504477353	36.9787310695951	130.2834009763488	0	0
0.14	-4.843283982763516	0.2260195791031391	24.74173242145651	0	0.9399999999999999	0	27.52733082885997	-16.65860483495487	-9.049313721869504	50.91922963964357	0.8887082097908661	0	0	0	27.52733082885997	-16.65860483495487	-9.049313721869504	50.91922963964357	0.8887082097908661	0	0	0	-2.795571126457119	-2.302988776735057	3.243585454227762	4.115884723052551	-12.9059648562085	-11.76712317064937	62.17063558603397	118.124175354423	0	0	22.04383687551346	-4.275374668451524	-17.54974288342009	36.99267263353526	130.2085540364095	0	0
